# xmcd CD database file
#
# Track frame offsets:
#	150
#	17535
#	31939
#	49053
#	64221
#	78743
#	94661
#	109285
#	130279
#	149588
#	169416
#	186179
#	198107
#
# Disc length: 3420 seconds
#
# Revision: 0
# Processed by: cddbd v1.5.2PL0 Copyright (c) Steve Scherf et al.
# Submitted via: CDex 1.51
#
DISCID=b80d5a0d
DTITLE=Lisa Kavanagh - i'm in love
DYEAR=2002
DGENRE=Jazz
TTITLE0=I'm In Love
TTITLE1=Hello, Haven't I Seen You Before?
TTITLE2=I Can't Help It
TTITLE3=Softly As In A Morning Sunrise
TTITLE4=It's All In The Game
TTITLE5=Just For You
TTITLE6=Somewhere In The Hills/Favella
TTITLE7=Love And Affection
TTITLE8=Rio de Janiero Blues
TTITLE9=The Nearness Of You
TTITLE10=Brothers
TTITLE11=Hi Fly
TTITLE12=Sway
EXTD=YEAR: 2002
EXTT0=
EXTT1=
EXTT2=
EXTT3=
EXTT4=
EXTT5=
EXTT6=
EXTT7=
EXTT8=
EXTT9=
EXTT10=
EXTT11=
EXTT12=
PLAYORDER=
